<svg width="12" height="13" viewBox="0 0 12 13" fill="none" xmlns="http://www.w3.org/2000/svg">
<path d="M6 11.6023C5.88333 11.6023 5.78333 11.5692 5.7 11.5029C5.61667 11.4366 5.55417 11.3496 5.5125 11.2419C5.35417 10.7778 5.15417 10.3428 4.9125 9.93682C4.67917 9.5308 4.35 9.05436 3.925 8.50748C3.5 7.96061 3.15417 7.43859 2.8875 6.94143C2.62917 6.44427 2.5 5.84354 2.5 5.13923C2.5 4.16977 2.8375 3.34946 3.5125 2.67829C4.19583 1.99884 5.025 1.65912 6 1.65912C6.975 1.65912 7.8 1.99884 8.475 2.67829C9.15833 3.34946 9.5 4.16977 9.5 5.13923C9.5 5.89326 9.35417 6.52299 9.0625 7.02844C8.77917 7.5256 8.45 8.01861 8.075 8.50748C7.625 9.10408 7.28333 9.60123 7.05 9.99896C6.825 10.3884 6.6375 10.8027 6.4875 11.2419C6.44583 11.3579 6.37917 11.449 6.2875 11.5153C6.20417 11.5733 6.10833 11.6023 6 11.6023ZM6 9.82496C6.14167 9.54323 6.3 9.26565 6.475 8.99222C6.65833 8.71878 6.925 8.35419 7.275 7.89846C7.63333 7.43445 7.925 7.00772 8.15 6.61828C8.38333 6.22055 8.5 5.72754 8.5 5.13923C8.5 4.45149 8.25417 3.86733 7.7625 3.38675C7.27917 2.89787 6.69167 2.65344 6 2.65344C5.30833 2.65344 4.71667 2.89787 4.225 3.38675C3.74167 3.86733 3.5 4.45149 3.5 5.13923C3.5 5.72754 3.6125 6.22055 3.8375 6.61828C4.07083 7.00772 4.36667 7.43445 4.725 7.89846C5.075 8.35419 5.3375 8.71878 5.5125 8.99222C5.69583 9.26565 5.85833 9.54323 6 9.82496ZM6 6.38213C6.35 6.38213 6.64583 6.26198 6.8875 6.02169C7.12917 5.7814 7.25 5.48724 7.25 5.13923C7.25 4.79122 7.12917 4.49707 6.8875 4.25677C6.64583 4.01648 6.35 3.89633 6 3.89633C5.65 3.89633 5.35417 4.01648 5.1125 4.25677C4.87083 4.49707 4.75 4.79122 4.75 5.13923C4.75 5.48724 4.87083 5.7814 5.1125 6.02169C5.35417 6.26198 5.65 6.38213 6 6.38213Z" fill="#49454F"/>
</svg>
