<svg width="9" height="12" viewBox="0 0 9 12" fill="none" xmlns="http://www.w3.org/2000/svg">
<path d="M1 9.51709V7.65346C1 7.36683 1.12178 7.08999 1.3473 6.91308C3.9703 4.85547 6.31294 5.9233 7.40349 6.93373C7.58188 7.09901 7.66668 7.33684 7.66668 7.58004V9.51709C7.66668 10.0694 7.21896 10.5171 6.66668 10.5171H2C1.44772 10.5171 1 10.0694 1 9.51709Z" stroke="#373C45"/>
<path d="M5.91667 2.64535C5.91667 3.51059 5.21048 4.21685 4.33334 4.21685C3.45619 4.21685 2.75 3.51059 2.75 2.64535C2.75 1.78012 3.45619 1.07385 4.33334 1.07385C5.21048 1.07385 5.91667 1.78012 5.91667 2.64535Z" stroke="#373C45"/>
</svg>
